<svg version="1.1" xmlns="http://www.w3.org/2000/svg" viewBox="0 0 1190.4285714285713 858.9037294117269" width="2380.8571428571427" height="1717.8074588234538">
  <!-- svg-source:excalidraw -->
  
  <defs>
    <style>
      @font-face {
        font-family: "Virgil";
        src: url("https://excalidraw.com/Virgil.woff2");
      }
      @font-face {
        font-family: "Cascadia";
        src: url("https://excalidraw.com/Cascadia.woff2");
      }
    </style>
  </defs>
  <rect x="0" y="0" width="1190.4285714285713" height="858.9037294117269" fill="#ffffff"></rect><g stroke-linecap="round" transform="translate(325.4285714285714 73.90372941172677) rotate(0 215 123)"><path d="M0.57 0.32 C104.28 -1.24, 207.31 -1.1, 430.59 -0.35 M0.47 -0.14 C109.38 -0.9, 219.16 -0.87, 429.81 0.51 M430.88 -1.46 C431.5 87.86, 430.14 174.76, 428.89 247.15 M430.74 -0.75 C431.23 94.19, 431.13 189.76, 429.46 245.21 M429.47 245.33 C270.53 247.44, 111.6 246.72, -0.59 246.08 M430.27 245.61 C281.29 245.78, 132.68 245.24, 0.11 246.29 M1.04 244.96 C-0.39 173.92, 1.39 104.9, 0.95 0.49 M-0.08 246.23 C2.19 167.58, 2.1 87.29, -0.65 0.76" stroke="#000000" stroke-width="1" fill="none"></path></g><g transform="translate(388.4285714285714 123.90372941172677) rotate(0 35 12)"><text x="0" y="19" font-family="Cascadia, Segoe UI Emoji" font-size="20px" fill="#000000" text-anchor="start" style="white-space: pre;" direction="ltr">Filter</text></g><g stroke-linecap="round"><g transform="translate(929.505593645413 41.37575493513603) rotate(0 -168.18989878054708 51.747476120479405)"><path d="M0.08 0.34 C-55.66 17.64, -279.58 86.81, -335.4 104.02 M-1.34 -0.53 C-57.17 16.4, -280.78 84.58, -336.46 102.16" stroke="#000000" stroke-width="1" fill="none"></path></g><g transform="translate(929.505593645413 41.37575493513603) rotate(0 -168.18989878054708 51.747476120479405)"><path d="M-311.99 83.67 C-316.92 88.62, -322.82 91.86, -337.51 101.05 M-312.9 83.03 C-317.24 88.74, -322.68 93.12, -335.73 102.61" stroke="#000000" stroke-width="1" fill="none"></path></g><g transform="translate(929.505593645413 41.37575493513603) rotate(0 -168.18989878054708 51.747476120479405)"><path d="M-305.93 103.27 C-312.21 103.94, -319.44 102.9, -337.51 101.05 M-306.84 102.64 C-312.67 103.82, -319.5 103.7, -335.73 102.61" stroke="#000000" stroke-width="1" fill="none"></path></g></g><g transform="translate(797.4285714285713 93.90372941172677) rotate(0 58.5 12)"><text x="0" y="19" font-family="Cascadia, Segoe UI Emoji" font-size="20px" fill="#000000" text-anchor="start" style="white-space: pre;" direction="ltr">load_model</text></g><g stroke-linecap="round" transform="translate(623.2857142857142 407.9037294117268) rotate(0 235.5 93.5)"><path d="M-0.68 -0.37 C152.67 -0.17, 304.24 -0.11, 470.49 0.57 M-0.08 -0.36 C165.69 -0.96, 331.55 -1.2, 470.63 -0.04 M472.02 -0.83 C471.7 39.66, 470.54 77.58, 469.07 186.31 M471.42 0.66 C471.32 62.89, 472.12 124.92, 470.53 186.73 M470.52 186.5 C302.4 187.48, 134.21 188.73, -0.72 186.84 M471.27 186.72 C360.02 186.43, 250.23 186.11, 0.05 186.76 M0.29 188.09 C0.31 122.51, 2.22 57.78, -1.64 -0.11 M0.34 186.71 C0.87 146.72, 2.08 105.5, -0.97 -0.46" stroke="#000000" stroke-width="1" fill="none"></path></g><g stroke-linecap="round"><g transform="translate(627.7907283724951 479.26765603126137) rotate(0 -101.06075313296168 -103.1432387197276)"><path d="M0.72 0.52 C-33.22 -33.88, -169.19 -172.43, -202.84 -206.81 M-0.36 -0.25 C-33.98 -34.48, -166.95 -171.05, -200.46 -205.65" stroke="#c92a2a" stroke-width="1" fill="none"></path></g><g transform="translate(627.7907283724951 479.26765603126137) rotate(0 -101.06075313296168 -103.1432387197276)"><path d="M-172.58 -193.62 C-184.58 -195.48, -192.72 -201.93, -199.12 -204.02 M-173.11 -193.47 C-179.8 -195.1, -186.23 -198.15, -200.26 -204.81" stroke="#c92a2a" stroke-width="1" fill="none"></path></g><g transform="translate(627.7907283724951 479.26765603126137) rotate(0 -101.06075313296168 -103.1432387197276)"><path d="M-187.3 -179.32 C-193.83 -186.54, -196.54 -198.26, -199.12 -204.02 M-187.82 -179.18 C-190.75 -184.34, -193.53 -190.94, -200.26 -204.81" stroke="#c92a2a" stroke-width="1" fill="none"></path></g></g><g stroke-linecap="round" transform="translate(648.2857142857142 444.9037294117268) rotate(0 105.5 56)"><path d="M0.06 -1.14 C82.86 1.3, 162.86 1.18, 212.47 0.04 M-0.36 -0.58 C62.19 -1.46, 123.68 -0.4, 210.92 -0.46 M211.55 0.2 C211.54 27.16, 210.02 51.35, 212.68 111.53 M210.75 0.22 C209.5 34.85, 209.48 71.05, 210.92 111.26 M211.26 112.05 C165.06 111.56, 117.75 112.39, -1.27 113.62 M211.09 111.6 C146.19 113.12, 82.47 112.34, -0.31 112.09 M-1.37 112.07 C-0.19 80.01, 1.14 46.58, -0.47 1.05 M0.75 112.5 C1.67 74.47, 0.87 38.93, 0.2 -0.72" stroke="#000000" stroke-width="1" fill="none"></path></g><g transform="translate(657.2857142857142 458.4037294117268) rotate(0 58.5 12)"><text x="0" y="19" font-family="Cascadia, Segoe UI Emoji" font-size="20px" fill="#000000" text-anchor="start" style="white-space: pre;" direction="ltr">Controller</text></g><g stroke-linecap="round" transform="translate(349.4285714285714 100.90372941172677) rotate(0 118 81)"><path d="M-0.59 -0.67 C62.4 -0.49, 122.35 0.17, 234.39 0.34 M-0.61 0.66 C58.61 0.02, 118.41 -0.48, 236.72 0.03 M236.05 0.36 C236.76 47.72, 235.59 90.87, 234.07 160.48 M236.68 0.93 C235.23 47.32, 235.5 92.57, 235.29 162 M235.61 161.41 C151.78 162.21, 67.51 159.58, 1.19 161.74 M235.29 162.83 C177.79 163.01, 120.25 163.44, -0.05 161.47 M-2 161.34 C1.45 110.49, 0.67 60.78, -1.33 -0.7 M-0.77 162.96 C-2.16 121.81, -0.61 80.15, 0.18 -0.56" stroke="#000000" stroke-width="1" fill="none"></path></g><g transform="translate(321.4285714285714 33.40372941172677) rotate(0 89 17.5)"><text x="0" y="25" font-family="Virgil, Segoe UI Emoji" font-size="28px" fill="#000000" text-anchor="start" style="white-space: pre;" direction="ltr">Filter thread</text></g><g transform="translate(925.7142857142858 623.2608722688697) rotate(0 80.5 17.5)"><text x="0" y="25" font-family="Virgil, Segoe UI Emoji" font-size="28px" fill="#000000" text-anchor="start" style="white-space: pre;" direction="ltr">main thread</text></g><g transform="translate(551.2857142857142 374.4037294117268) rotate(0 60.5 9)"><text x="0" y="14" font-family="Helvetica, Segoe UI Emoji" font-size="16px" fill="#c92a2a" text-anchor="start" style="white-space: pre;" direction="ltr">channel: ctrl msg</text></g><g stroke-linecap="round" transform="translate(664.3212115451063 161.57254366493413) rotate(0 18.153413633396156 27.54679645585233)"><path d="M0.63 -0.08 L36.06 0.24 L35.44 55.18 L-1.82 57.03" stroke="none" stroke-width="0" fill="#fff"></path><path d="M-0.61 -0.07 C9.44 -1.19, 17.43 0.92, 37.87 0.28 M0.13 -0.7 C13 -0.04, 24.28 0.23, 37.12 0.9 M36.8 -0.5 C37.09 19.53, 37.69 34.03, 37.5 55.87 M36.76 -0.76 C36.28 12.6, 35.17 25.81, 36.29 55.64 M36.51 55.7 C28.65 56.26, 20.64 56.25, 0.97 55.43 M37.3 54.68 C28.01 54.89, 21.37 56.21, -0.75 55.76 M-1.5 53.97 C-0.17 35.73, 1.36 15.78, -1.18 1.93 M-0.11 55.28 C0.93 37.57, 1.09 18.21, -0.9 0.9" stroke="#364fc7" stroke-width="2" fill="none"></path></g><g stroke-linecap="round" transform="translate(660.444176312431 157.9663992488857) rotate(0 18.153413633396156 27.54679645585233)"><path d="M-0.08 -0.25 L36.54 -0.87 L36.39 53.27 L1.93 56.78" stroke="none" stroke-width="0" fill="#fff"></path><path d="M-0.07 1.7 C7.6 2.07, 18.71 1.67, 36.59 0.68 M-0.7 0.88 C13.14 -0.01, 26.29 0.77, 37.2 0.24 M35.8 0.32 C37.93 22.05, 34.57 43.46, 37.09 53.72 M35.54 0.15 C35.81 13.83, 36.25 29.58, 36.85 54.34 M36.91 55.59 C29.47 55.77, 21.55 56.1, 0.34 53.34 M35.89 54.5 C23.62 55.94, 12.63 54.71, 0.67 55.83 M-1.12 54.64 C0.82 42.45, 1.43 26.49, 1.93 0.72 M0.19 55.5 C0.89 44.34, 0.04 31.55, 0.9 0.32" stroke="#364fc7" stroke-width="2" fill="none"></path></g><g stroke-linecap="round" transform="translate(655.6180199222408 153.72645631901577) rotate(0 18.153413633396156 27.54679645585233)"><path d="M-0.25 0.24 L35.44 0.08 L34.48 57.03 L1.69 55.93" stroke="none" stroke-width="0" fill="#fff"></path><path d="M1.7 -1.4 C10.81 0.73, 19.26 0.3, 36.99 1.09 M0.88 0.26 C13.99 0.79, 28.72 1.15, 36.55 0.84 M36.63 1.68 C37.36 14.33, 37.64 32.81, 34.94 54.46 M36.46 -0.15 C35.59 13.34, 36.54 26.65, 35.55 54.27 M36.8 56.17 C25.21 56.27, 13.82 55.54, -1.75 55.87 M35.71 54.7 C24.02 55.87, 10.02 55.61, 0.73 54.58 M-0.46 56.3 C1.49 36.57, -0.77 16.35, 0.72 -1.89 M0.41 56.08 C0.63 37.73, -0.84 20.99, 0.32 -0.04" stroke="#364fc7" stroke-width="2" fill="none"></path></g><g stroke-linecap="round"><g transform="translate(661.7268169678036 179.62210192619636) rotate(0 12.481905338297338 -1.5454484680322764)"><path d="M1.02 -2.34 C4.74 -2.25, 17.97 -0.9, 21.94 -0.99 C25.91 -1.09, 24.47 -2.68, 24.86 -2.92 M0.1 -0.17 C3.79 -0.44, 17.53 -2.67, 21.61 -2.89 C25.69 -3.12, 24.06 -1.22, 24.59 -1.51" stroke="#364fc7" stroke-width="1" fill="none"></path></g></g><g stroke-linecap="round"><g transform="translate(663.1363266219619 163.3956855461372) rotate(0 11.36957400873871 -1.9282777838954956)"><path d="M-0.84 -0.19 C0.68 -0.44, 5.01 -1.71, 9.08 -1.87 C13.14 -2.02, 21.08 -1.35, 23.58 -1.12 M0.92 -0.62 C2.32 -0.67, 4.69 -3.06, 8.35 -3.5 C12.02 -3.94, 20.18 -3.41, 22.9 -3.25" stroke="#364fc7" stroke-width="1" fill="none"></path></g></g><g stroke-linecap="round"><g transform="translate(662.5269033929515 197.86007438371297) rotate(0 13.476988805597784 -0.46103091668007323)"><path d="M1.18 -0.53 C3.42 -0.38, 11.41 -1.15, 14.5 -0.92 C17.6 -0.68, 17.84 1.04, 19.73 0.89 C21.62 0.74, 25.13 -1.51, 25.84 -1.81 M0.33 -1.35 C2.41 -0.91, 10.91 0.67, 14.05 0.71 C17.19 0.75, 17.08 -0.88, 19.18 -1.11 C21.28 -1.33, 25.53 -0.21, 26.62 -0.63" stroke="#364fc7" stroke-width="1" fill="none"></path></g></g><g stroke-linecap="round"><g transform="translate(661.4451543403447 203.66091900747404) rotate(0 14.09970287123599 -1.7247899461179372)"><path d="M0.43 -0.18 C1.47 -0.41, 3.97 -1.25, 5.39 -1.31 C6.81 -1.37, 5.86 -0.48, 8.94 -0.54 C12.03 -0.59, 20.57 -1.4, 23.92 -1.64 C27.26 -1.88, 28.33 -1.98, 29.01 -1.98 M-0.81 -0.73 C0.16 -0.83, 2.98 -2.95, 4.53 -3.22 C6.09 -3.49, 5.24 -2.72, 8.52 -2.35 C11.81 -1.98, 20.98 -1.13, 24.24 -0.98 C27.5 -0.82, 27.23 -1.2, 28.09 -1.43" stroke="#364fc7" stroke-width="1" fill="none"></path></g></g><g stroke-linecap="round"><g transform="translate(661.2147552412773 169.87405770535315) rotate(0 12.544040485660219 0.16775620542725278)"><path d="M0.94 -0.12 C2.37 -0.13, 5.72 -0.09, 9.75 0.07 C13.78 0.22, 22.87 0.55, 25.12 0.83 M-0.03 -1.07 C1.17 -1.47, 4.87 -2.26, 9.02 -1.71 C13.17 -1.16, 22.54 1.99, 24.88 2.23" stroke="#364fc7" stroke-width="1" fill="none"></path></g></g><g stroke-linecap="round"><g transform="translate(661.8379959417905 187.57199540545014) rotate(0 11.982252064843351 0.41691246836876417)"><path d="M0.17 0.12 C0.9 0.25, 3.26 1.72, 4.81 1.46 C6.37 1.2, 6.11 -1.35, 9.5 -1.43 C12.89 -1.51, 22.72 0.54, 25.16 0.99 M-1.2 -0.71 C-0.61 -0.98, 2.54 -0.16, 4.21 -0.13 C5.88 -0.11, 5.8 -0.95, 8.81 -0.55 C11.83 -0.15, 19.99 1.83, 22.31 2.26" stroke="#364fc7" stroke-width="1" fill="none"></path></g></g><g transform="translate(625.4285714285713 227.40372941172677) rotate(0 61 9.5)"><text x="0" y="15" font-family="Cascadia, Segoe UI Emoji" font-size="16px" fill="#364fc7" text-anchor="start" style="white-space: pre;" direction="ltr">python script</text></g><g stroke-linecap="round"><g transform="translate(706.4285714285713 185.90372941172677) rotate(0 154.10740816898652 -45.759631129816185)"><path d="M-1.06 1.11 C44.61 1.34, 223.39 17.34, 275 0.55 C326.61 -16.25, 303.14 -83.02, 308.6 -99.63 M0.58 0.65 C46.1 0.59, 223.31 15.26, 274.57 -1.29 C325.84 -17.84, 302.6 -82.52, 308.15 -98.65" stroke="#364fc7" stroke-width="1" fill="none"></path></g><g transform="translate(706.4285714285713 185.90372941172677) rotate(0 154.10740816898652 -45.759631129816185)"><path d="M320.26 -68.79 C315.62 -80.2, 309.78 -92.29, 307.96 -98.2 M318.29 -70.59 C316.45 -78.24, 313.13 -85.91, 308.36 -98.85" stroke="#364fc7" stroke-width="1" fill="none"></path></g><g transform="translate(706.4285714285713 185.90372941172677) rotate(0 154.10740816898652 -45.759631129816185)"><path d="M299.73 -68.8 C302.85 -80.02, 304.77 -92.11, 307.96 -98.2 M297.76 -70.6 C301.66 -78.24, 304.07 -85.91, 308.36 -98.85" stroke="#364fc7" stroke-width="1" fill="none"></path></g></g><g transform="translate(865.4285714285713 199.40372941172677) rotate(0 42 9.5)"><text x="0" y="15" font-family="Cascadia, Segoe UI Emoji" font-size="16px" fill="#364fc7" text-anchor="start" style="white-space: pre;" direction="ltr">generates</text></g><g stroke-linecap="round" transform="translate(913.2857142857142 433.9037294117268) rotate(0 73.5 28)"><path d="M-1.54 -1.58 C54.94 1.55, 110.05 0.65, 147.37 -1.23 M0.25 0.18 C34.06 -0.98, 67.78 -0.69, 147.34 0.11 M145.41 -0.64 C147.11 17.74, 146.08 30.8, 145.67 57.78 M147.63 0.18 C146.12 15.52, 146.48 30.08, 147.1 56.07 M148.53 57.38 C103.65 55.21, 58.54 57.67, 0.23 57.27 M146.77 56.63 C108.96 54.03, 70.52 55.38, -0.86 56.19 M-0.98 55.82 C-0.85 33.24, -1.47 14.04, 1.58 -1.44 M-0.11 56.34 C0.56 41.53, 1 28.22, -0.69 0.77" stroke="#000000" stroke-width="1" fill="none"></path></g><g transform="translate(917.2857142857142 452.4037294117268) rotate(0 65.5 9.5)"><text x="0" y="15" font-family="Cascadia, Segoe UI Emoji" font-size="16px" fill="#000000" text-anchor="start" style="white-space: pre;" direction="ltr">InputGenerator</text></g><g stroke-linecap="round"><g transform="translate(909.985260490062 428.89304036302656) rotate(0 -162.0176706491252 -90.14900426437544)"><path d="M0.16 1.13 C-53.58 -29.15, -269.28 -151.15, -323.01 -181.42 M-1.21 0.67 C-55.11 -29.45, -270.6 -149.57, -324.2 -180.11" stroke="#2b8a3e" stroke-width="1" fill="none"></path></g><g transform="translate(909.985260490062 428.89304036302656) rotate(0 -162.0176706491252 -90.14900426437544)"><path d="M-292.72 -175.99 C-302.92 -175.85, -308.98 -178.81, -322.92 -181.96 M-293.8 -176.2 C-305.64 -177.48, -316.26 -178.48, -323.78 -179.31" stroke="#2b8a3e" stroke-width="1" fill="none"></path></g><g transform="translate(909.985260490062 428.89304036302656) rotate(0 -162.0176706491252 -90.14900426437544)"><path d="M-302.79 -158.1 C-310.43 -162.58, -313.9 -170.13, -322.92 -181.96 M-303.87 -158.32 C-312.07 -166.34, -318.95 -174, -323.78 -179.31" stroke="#2b8a3e" stroke-width="1" fill="none"></path></g></g><g transform="translate(820.7142857142856 349.6894436974411) rotate(0 58.5 9)"><text x="0" y="14" font-family="Helvetica, Segoe UI Emoji" font-size="16px" fill="#2b8a3e" text-anchor="start" style="white-space: pre;" direction="ltr">channel: filter_in</text></g><g stroke-linecap="round" transform="translate(10 427.3323008402981) rotate(0 174 83.5)"><path d="M0.35 -0.55 C137.78 -1.78, 272.55 -0.97, 348.64 -1.2 M0.19 -0.06 C139.47 -1.12, 278.29 -1.33, 347.4 0.41 M347.56 -1.68 C346.87 54.44, 349.31 109.77, 347.68 165.51 M348.4 -0.37 C349.13 53.22, 348.88 108, 348.18 167.76 M348.3 168.08 C261.53 170.53, 176.08 168.11, -0.1 166.11 M347.51 167.27 C225.52 166.71, 103.17 167.83, 0.1 166.4 M-0.72 168.13 C3.09 120.27, 0.35 74.02, 1.5 -0.24 M-0.17 167.8 C0.56 112.67, 0.11 59.93, 0.43 0.35" stroke="#000000" stroke-width="1" fill="none"></path></g><g transform="translate(16.285714285714334 612.4037294117267) rotate(0 97.5 17.5)"><text x="0" y="25" font-family="Virgil, Segoe UI Emoji" font-size="28px" fill="#000000" text-anchor="start" style="white-space: pre;" direction="ltr">fuzzer thread</text></g><g stroke-linecap="round" transform="translate(39 460.3323008402981) rotate(0 44.5 36)"><path d="M1.59 1.92 C19.74 -1.89, 37.26 -2.29, 87.85 1.53 M-0.67 -0.97 C30.09 0.25, 62.59 -0.14, 88.83 0.4 M90.15 1.15 C90.88 29.74, 89.48 57.81, 87.06 70.21 M89.14 -0.47 C89.4 18.15, 89.03 38.11, 88.33 71.89 M90.34 73.08 C68.91 74.12, 48.36 73.46, 1.52 73.98 M88.13 71.53 C53.42 72.63, 17.85 72.92, -0.91 72.18 M-1.53 71.73 C-0.57 56.35, -1.01 40.83, -1.38 1 M0.38 72.87 C-1.17 51.33, -0.7 31.41, 0.11 -0.18" stroke="#000000" stroke-width="1" fill="none"></path></g><g transform="translate(144 475.8323008402981) rotate(0 47 12)"><text x="0" y="19" font-family="Cascadia, Segoe UI Emoji" font-size="20px" fill="#000000" text-anchor="start" style="white-space: pre;" direction="ltr">Executor</text></g><g stroke-linecap="round"><g transform="translate(331.5735966245483 240.82617563940062) rotate(0 -123.0275687218102 107.65170250546123)"><path d="M-1.16 0.53 C-41.98 36.09, -204.7 178.84, -245.23 214.55 M0.43 -0.23 C-40.56 35.94, -205.58 179.56, -246.49 215.54" stroke="#862e9c" stroke-width="1" fill="none"></path></g><g transform="translate(331.5735966245483 240.82617563940062) rotate(0 -123.0275687218102 107.65170250546123)"><path d="M-231.13 188.29 C-237.42 196.71, -240.98 203.25, -248.45 215.3 M-232.07 189.97 C-235.85 197.1, -240.46 203.46, -246.12 215.67" stroke="#862e9c" stroke-width="1" fill="none"></path></g><g transform="translate(331.5735966245483 240.82617563940062) rotate(0 -123.0275687218102 107.65170250546123)"><path d="M-217.62 203.74 C-227.74 207.83, -234.98 210.16, -248.45 215.3 M-218.56 205.42 C-225.94 208.25, -234.21 210.43, -246.12 215.67" stroke="#862e9c" stroke-width="1" fill="none"></path></g></g><g transform="translate(214.21428571428572 352.1180151260123) rotate(0 63 9)"><text x="63" y="14" font-family="Helvetica, Segoe UI Emoji" font-size="16px" fill="#862e9c" text-anchor="middle" style="white-space: pre;" direction="ltr">channel: filter_out</text></g><g stroke-linecap="round"><g transform="translate(451.55159165545587 691.1945724397639) rotate(0 43.860770163292045 47.720885398370285)" fill-rule="evenodd"><path d="M-0.75 -0.08 L-0.09 96.03 L2.43 97.83 L19.93 103.97 L48.13 103.31 L71.55 104.54 L80.61 99.12 L86.44 95.25 L88.48 0.3 L87.16 -1.29 L87.25 -2.36 L75.96 -7.08 L44.54 -8.78 L13.04 -6.89 L1.85 -4.48 L-1.96 -1.59" stroke="none" stroke-width="0" fill="#228be6" fill-rule="evenodd"></path><path d="M-1.11 0.14 C-1.15 14.21, 0.38 69.46, 0.6 85.55 C0.83 101.65, -0.39 94.16, 0.22 96.69 C0.82 99.22, 0.95 99.43, 4.23 100.74 C7.52 102.04, 12.77 104.03, 19.92 104.52 C27.08 105.01, 38.49 103.81, 47.15 103.67 C55.81 103.54, 65.38 104.72, 71.87 103.71 C78.36 102.7, 83.26 99.05, 86.09 97.6 C88.91 96.15, 88.3 96.75, 88.82 95.02 C89.33 93.28, 89.18 101.78, 89.17 87.2 C89.15 72.62, 89.14 22.15, 88.72 7.53 C88.3 -7.09, 87.9 1.4, 86.65 -0.53 C85.4 -2.45, 84.18 -3.01, 81.2 -4 C78.22 -4.99, 75.2 -5.51, 68.74 -6.47 C62.29 -7.43, 50.6 -9.57, 42.47 -9.78 C34.35 -9.99, 26.61 -8.58, 20 -7.76 C13.4 -6.93, 6.24 -6.23, 2.85 -4.82 C-0.55 -3.41, 0.19 0, -0.38 0.7 C-0.95 1.4, -0.62 -0.6, -0.57 -0.59 M0.51 -0.83 C0.26 13.91, -0.02 70.89, -0.18 86.83 C-0.34 102.77, -1.19 92.84, -0.44 94.79 C0.31 96.74, 0.59 96.76, 4.32 98.52 C8.04 100.29, 14.52 104.16, 21.91 105.36 C29.3 106.56, 40.26 106.15, 48.65 105.71 C57.03 105.28, 66.13 103.63, 72.21 102.74 C78.28 101.84, 82.54 101.85, 85.11 100.32 C87.68 98.79, 87.34 95.83, 87.62 93.56 C87.91 91.29, 86.5 100.86, 86.8 86.71 C87.1 72.56, 89.16 23.31, 89.44 8.68 C89.72 -5.94, 89.85 1.16, 88.46 -1.04 C87.07 -3.25, 84 -3.63, 81.1 -4.52 C78.21 -5.41, 77.5 -5.34, 71.1 -6.37 C64.69 -7.41, 51.1 -10.69, 42.68 -10.71 C34.25 -10.72, 26.88 -7.46, 20.56 -6.46 C14.24 -5.45, 8.5 -5.98, 4.76 -4.66 C1.03 -3.34, -1.28 0.8, -1.84 1.46 C-2.4 2.13, 1.03 -0.3, 1.41 -0.65" stroke="#0a11d3" stroke-width="1" fill="none"></path></g></g><g stroke-linecap="round"><g transform="translate(452.23895324495305 756.4847004705515) rotate(0 43.91909347514286 4.9348095125103555)"><path d="M0.14 0.31 C0.26 1.18, -0.35 3.02, 1.83 4.11 C4 5.2, 9.11 6.09, 13.2 6.87 C17.29 7.65, 20.65 8.33, 26.37 8.77 C32.08 9.21, 40.22 9.73, 47.48 9.51 C54.74 9.3, 63.51 8.49, 69.93 7.5 C76.35 6.51, 83.13 4.76, 86 3.58 C88.87 2.41, 86.81 0.97, 87.17 0.46 M-1.25 -0.57 C-1.43 0.01, -1.73 0.66, 0.62 2.1 C2.97 3.53, 8.49 6.76, 12.87 8.03 C17.26 9.29, 21.36 9.34, 26.96 9.67 C32.55 10, 39.16 9.97, 46.46 9.99 C53.76 10.02, 64 11.1, 70.76 9.81 C77.52 8.53, 83.94 3.82, 87.02 2.29 C90.09 0.75, 88.69 1.04, 89.21 0.6" stroke="#0a11d3" stroke-width="1" fill="none"></path></g></g><g stroke-linecap="round"><g transform="translate(451.1452117328917 723.4105459084797) rotate(0 44.121101424006326 4.10767720605412)"><path d="M0.31 -0.5 C0.92 0.27, 0.58 3.36, 2.53 4.75 C4.49 6.13, 8.25 6.96, 12.05 7.84 C15.85 8.72, 19.53 9.95, 25.32 10.02 C31.11 10.09, 39.27 8.45, 46.79 8.24 C54.32 8.04, 64.02 9.78, 70.45 8.79 C76.88 7.81, 82.26 3.91, 85.39 2.35 C88.51 0.79, 88.57 -0.11, 89.22 -0.58 M-0.98 -1.81 C-0.42 -1.38, -0.33 1.79, 1.69 3.06 C3.71 4.34, 7.18 5.03, 11.12 5.84 C15.07 6.65, 19.64 7.54, 25.36 7.91 C31.07 8.28, 37.71 8.01, 45.41 8.05 C53.11 8.09, 64.78 8.79, 71.55 8.13 C78.33 7.46, 83.23 5.59, 86.08 4.07 C88.93 2.55, 88.33 0, 88.68 -1" stroke="#0a11d3" stroke-width="1" fill="none"></path></g></g><g stroke-linecap="round" transform="translate(450.02438904672994 683.1698762126672) rotate(0 43.825373054270926 8.863351988406805)"><path d="M49.25 0.2 C58.44 0.28, 69.99 0.94, 76.21 2.21 C82.43 3.48, 86.22 5.99, 86.57 7.83 C86.93 9.67, 83.8 11.56, 78.34 13.27 C72.89 14.98, 62.62 17.59, 53.84 18.1 C45.05 18.61, 33.96 17.36, 25.63 16.34 C17.29 15.31, 7.89 13.59, 3.82 11.94 C-0.24 10.29, -1.38 8.3, 1.26 6.46 C3.89 4.62, 10.35 1.89, 19.62 0.88 C28.9 -0.14, 49.57 0.38, 56.91 0.38 C64.25 0.39, 63.83 0.89, 63.65 0.91 M24.26 2.16 C32.36 1.29, 46.12 0.29, 55.39 0.31 C64.66 0.34, 74.41 0.59, 79.89 2.32 C85.37 4.05, 89.26 8.64, 88.26 10.67 C87.25 12.7, 80.6 13.37, 73.86 14.49 C67.11 15.6, 57.14 17.17, 47.79 17.36 C38.43 17.56, 25.5 16.78, 17.75 15.65 C10 14.53, 3.57 12.2, 1.3 10.61 C-0.96 9.03, -0.06 7.7, 4.16 6.14 C8.38 4.58, 23.1 2.35, 26.64 1.24 C30.17 0.13, 25.47 -0.65, 25.38 -0.5" stroke="none" stroke-width="0" fill="#fff"></path><path d="M58.52 1.25 C67.16 1.52, 77.28 1.89, 81.94 3.52 C86.6 5.14, 88.14 9.14, 86.49 11 C84.84 12.87, 79.04 13.61, 72.05 14.71 C65.06 15.81, 53.81 17.47, 44.55 17.62 C35.29 17.76, 23.67 16.75, 16.46 15.59 C9.25 14.43, 3.17 12.54, 1.29 10.66 C-0.58 8.77, 0.68 5.88, 5.19 4.27 C9.7 2.67, 18.69 1.48, 28.35 1.01 C38.02 0.54, 56.51 1.44, 63.18 1.47 C69.85 1.49, 68.68 1.11, 68.37 1.18 M28.21 -0.05 C36.37 -0.78, 47.54 -0.23, 56.48 0.37 C65.42 0.98, 76.74 1.94, 81.86 3.58 C86.98 5.21, 88.56 8.06, 87.19 10.18 C85.81 12.3, 80.61 15.08, 73.6 16.29 C66.59 17.5, 54.52 17.35, 45.11 17.43 C35.71 17.5, 24.73 17.96, 17.2 16.73 C9.66 15.5, 1.72 12.07, -0.11 10.06 C-1.94 8.05, 1.88 6.4, 6.21 4.67 C10.55 2.93, 22.55 0.25, 25.87 -0.34 C29.2 -0.93, 25.45 0.87, 26.15 1.13" stroke="#0a11d3" stroke-width="1" fill="none"></path></g><g stroke-linecap="round" transform="translate(521.5341213473107 707.7456790898008) rotate(0 6.423028523489904 6.97095218120802)"><path d="M4.61 1.24 C5.85 0.41, 7.19 -0.7, 8.37 -0.45 C9.55 -0.2, 11.12 1.37, 11.71 2.74 C12.3 4.12, 12.02 6.01, 11.91 7.79 C11.79 9.57, 12.03 12.41, 11 13.43 C9.96 14.46, 7.25 14.23, 5.67 13.94 C4.1 13.66, 2.49 12.65, 1.56 11.71 C0.63 10.76, 0.29 9.62, 0.08 8.28 C-0.12 6.94, -0.62 5.07, 0.34 3.67 C1.3 2.27, 4.75 0.37, 5.85 -0.1 C6.96 -0.58, 7.09 0.84, 6.98 0.83 M5.01 0.87 C6.15 0.38, 7.2 -0.1, 8.07 0.38 C8.93 0.85, 9.24 2.68, 10.2 3.72 C11.17 4.76, 13.83 5.22, 13.86 6.61 C13.88 7.99, 11.54 10.98, 10.34 12.04 C9.14 13.11, 8.02 12.92, 6.68 13 C5.34 13.07, 3.46 13.2, 2.29 12.51 C1.13 11.82, -0.2 10.04, -0.31 8.85 C-0.43 7.66, 0.88 6.78, 1.61 5.37 C2.35 3.95, 3.99 1.29, 4.09 0.35 C4.2 -0.59, 2.19 -0.64, 2.25 -0.29" stroke="none" stroke-width="0" fill="#fff"></path><path d="M6.31 0.2 C7.35 -0.1, 7.82 -0.18, 8.96 0.61 C10.1 1.4, 12.74 3.33, 13.14 4.97 C13.55 6.6, 12.05 8.91, 11.4 10.41 C10.76 11.92, 10.34 13.33, 9.27 13.99 C8.2 14.66, 6.25 14.99, 4.97 14.41 C3.69 13.83, 2.43 11.89, 1.58 10.51 C0.73 9.13, -0.24 7.67, -0.15 6.14 C-0.05 4.6, 0.9 2.35, 2.17 1.3 C3.45 0.25, 6.57 0.1, 7.51 -0.16 C8.46 -0.42, 7.93 -0.28, 7.86 -0.26 M2.8 0.02 C3.99 -0.71, 6.45 0.68, 7.82 1.13 C9.18 1.58, 10.14 1.62, 10.99 2.72 C11.85 3.81, 12.78 6.24, 12.95 7.68 C13.11 9.11, 12.99 10.26, 11.98 11.33 C10.98 12.41, 8.28 14.06, 6.91 14.12 C5.55 14.19, 5 12.37, 3.78 11.71 C2.57 11.05, 0.16 11.64, -0.4 10.16 C-0.96 8.69, -0.04 4.66, 0.45 2.85 C0.93 1.04, 1.94 -0.56, 2.51 -0.68 C3.08 -0.81, 3.7 1.86, 3.88 2.08" stroke="#0a11d3" stroke-width="1" fill="none"></path></g><g stroke-linecap="round" transform="translate(521.5341213473107 738.3481329488612) rotate(0 6.423028523489904 6.97095218120802)"><path d="M5.5 -0.2 C6.42 -0.78, 7.07 -0.37, 8.02 0.18 C8.97 0.72, 10.52 1.55, 11.19 3.06 C11.85 4.57, 12.01 7.73, 12.01 9.24 C12.01 10.74, 12.19 11.38, 11.2 12.07 C10.2 12.77, 7.64 13.39, 6.04 13.39 C4.44 13.38, 2.52 13.1, 1.58 12.05 C0.64 11.01, 0.42 8.6, 0.4 7.11 C0.39 5.63, 0.73 4.33, 1.48 3.13 C2.24 1.92, 4.16 0.5, 4.96 -0.11 C5.75 -0.72, 6.33 -0.54, 6.23 -0.53 M6.67 0.01 C8.18 -0.54, 9.59 -0.94, 10.73 0.2 C11.88 1.34, 13.48 5.23, 13.53 6.84 C13.58 8.45, 11.82 8.79, 11.02 9.85 C10.23 10.91, 10.04 12.67, 8.75 13.21 C7.45 13.74, 4.62 13.59, 3.27 13.03 C1.92 12.48, 1.17 10.92, 0.65 9.88 C0.13 8.83, -0.35 8.05, 0.15 6.74 C0.65 5.43, 2.64 3.38, 3.64 2.01 C4.64 0.64, 5.86 -1.26, 6.15 -1.49 C6.44 -1.72, 5.14 0.45, 5.38 0.63" stroke="none" stroke-width="0" fill="#fff"></path><path d="M8.29 -0.66 C9.55 -0.39, 10.47 2.4, 11.24 3.63 C12 4.85, 12.82 5.34, 12.9 6.71 C12.97 8.07, 12.54 10.65, 11.68 11.84 C10.82 13.04, 9.14 13.69, 7.75 13.87 C6.35 14.04, 4.69 13.78, 3.32 12.9 C1.94 12.01, 0.04 9.96, -0.49 8.55 C-1.03 7.14, -0.44 5.68, 0.12 4.43 C0.67 3.19, 1.37 1.82, 2.82 1.08 C4.26 0.34, 7.77 -0.03, 8.8 0 C9.82 0.02, 9.1 1.18, 8.96 1.23 M4.8 0.01 C6.08 -0.24, 9.5 -0.32, 10.78 0.5 C12.06 1.32, 12.15 3.28, 12.48 4.94 C12.8 6.6, 13.29 9.14, 12.71 10.46 C12.14 11.77, 10.27 12.14, 9.04 12.84 C7.8 13.54, 6.77 15.02, 5.31 14.65 C3.84 14.27, 0.94 11.9, 0.25 10.57 C-0.44 9.24, 1.16 8.2, 1.16 6.65 C1.16 5.11, -0.23 2.34, 0.26 1.3 C0.75 0.25, 3.01 0.6, 4.1 0.38 C5.18 0.15, 6.62 -0.33, 6.76 -0.04" stroke="#0a11d3" stroke-width="1" fill="none"></path></g><g stroke-linecap="round" transform="translate(521.5341213473107 771.6089341233578) rotate(0 6.423028523489904 6.970952181208077)"><path d="M8.78 -0.25 C9.9 -0.01, 11.4 1.76, 11.9 3.18 C12.4 4.6, 12.01 6.5, 11.79 8.26 C11.58 10.02, 11.73 12.78, 10.63 13.72 C9.54 14.66, 6.79 14.3, 5.23 13.91 C3.66 13.52, 2.11 12.39, 1.24 11.37 C0.38 10.35, 0.15 9.14, 0.04 7.79 C-0.07 6.44, -0.21 4.55, 0.6 3.27 C1.41 1.98, 3.44 0.35, 4.9 0.07 C6.36 -0.21, 8.65 1.51, 9.37 1.56 C10.08 1.62, 9.35 0.42, 9.2 0.42 M4.19 0.59 C4.93 0.1, 5.65 0.86, 7.11 1.18 C8.58 1.5, 12.16 1.32, 12.99 2.51 C13.83 3.69, 12.57 6.83, 12.11 8.3 C11.65 9.78, 11.27 10.46, 10.25 11.36 C9.23 12.27, 7.41 13.59, 6 13.76 C4.59 13.93, 2.6 13.09, 1.79 12.38 C0.98 11.68, 1.22 11.07, 1.13 9.54 C1.04 8.01, 0.99 4.9, 1.25 3.21 C1.51 1.51, 2.12 -0.4, 2.7 -0.65 C3.27 -0.89, 4.62 1.59, 4.72 1.72" stroke="none" stroke-width="0" fill="#fff"></path><path d="M4.45 -0.39 C5.71 -0.72, 9.11 0.08, 10.29 1.05 C11.47 2.02, 11.19 3.88, 11.53 5.42 C11.87 6.95, 12.66 8.88, 12.32 10.26 C11.99 11.63, 10.66 13.2, 9.52 13.68 C8.38 14.16, 6.87 13.59, 5.5 13.13 C4.13 12.66, 2.14 12.08, 1.31 10.88 C0.47 9.68, 0.36 7.38, 0.48 5.94 C0.59 4.5, 1.1 3.35, 2 2.24 C2.91 1.12, 4.97 -0.3, 5.91 -0.76 C6.86 -1.22, 7.74 -0.71, 7.68 -0.52 M8.35 1.29 C9.65 1.76, 10.55 2.05, 11.31 3.21 C12.06 4.38, 12.85 6.85, 12.9 8.28 C12.94 9.7, 12.68 10.78, 11.59 11.76 C10.5 12.74, 7.73 14.24, 6.36 14.17 C4.98 14.1, 4.48 12.13, 3.33 11.36 C2.18 10.6, -0.1 11.09, -0.54 9.58 C-0.98 8.07, 0.1 4.06, 0.69 2.31 C1.28 0.55, 1.68 -0.81, 3.02 -0.94 C4.35 -1.06, 7.86 1.42, 8.72 1.54 C9.57 1.66, 7.98 -0.2, 8.13 -0.24" stroke="#0a11d3" stroke-width="1" fill="none"></path></g><g transform="translate(446.5714285714284 823.9037294117269) rotate(0 53.5 12.5)"><text x="0" y="18" font-family="Virgil, Segoe UI Emoji" font-size="20px" fill="#862e9c" text-anchor="start" style="white-space: pre;" direction="ltr">Seedcorpus</text></g><g stroke-linecap="round"><g transform="translate(523.8273556728839 677.6017421900488) rotate(0 197.3984244644036 -89.7666958818076)"><path d="M0.27 -0.73 C66.1 -30.48, 330.04 -149.33, 395.84 -179.18 M-1.05 1.5 C64.54 -28.55, 328.41 -151.01, 394.85 -181.03" stroke="#862e9c" stroke-width="1" fill="none"></path></g><g transform="translate(523.8273556728839 677.6017421900488) rotate(0 197.3984244644036 -89.7666958818076)"><path d="M372.29 -160.1 C382.4 -169.18, 389.18 -173.93, 392.94 -181.61 M372.92 -160.77 C380.21 -166.57, 385.54 -173.26, 395.11 -180.8" stroke="#862e9c" stroke-width="1" fill="none"></path></g><g transform="translate(523.8273556728839 677.6017421900488) rotate(0 197.3984244644036 -89.7666958818076)"><path d="M363.73 -178.75 C376.91 -180.94, 386.87 -178.77, 392.94 -181.61 M364.36 -179.42 C374.39 -179.46, 382.34 -180.42, 395.11 -180.8" stroke="#862e9c" stroke-width="1" fill="none"></path></g></g><g stroke-linecap="round" transform="translate(934.1048888020541 44.034011820268006) rotate(0 56.32368262651727 18.386723501592797)"><path d="M56.85 1.24 L110.96 21 L57.28 35.62 L0.57 18.06" stroke="none" stroke-width="0" fill="#fd8888" fill-rule="evenodd"></path><path d="M57.12 -0.55 C73.75 7.35, 94.86 12.73, 111.24 18.33 M57.99 -0.14 C77.14 6.91, 96.63 14.1, 112.95 18.14 M112.04 18.36 C93.31 25.72, 68.8 32.02, 56.37 38.49 M111.98 19.55 C101.04 23.79, 88.22 27.1, 57.8 35.9 M55.31 35.91 C38.5 29.9, 18.52 25.36, 0.99 19.93 M57.66 36.57 C35.77 30.39, 16.44 23.88, 0.11 19.51 M0.16 17.47 C18.55 14.16, 36.46 9.18, 56.1 0.58 M0.61 19.51 C21.31 12.2, 43.82 5.27, 56.49 -0.82" stroke="#c92a2a" stroke-width="1" fill="none"></path></g><g stroke-linecap="round" transform="translate(934.1048888020541 35.16223189200946) rotate(0 56.32368262651727 18.386723501592797)"><path d="M58.24 -1.69 L114.65 19.28 L55.84 37.34 L-0.94 17.44" stroke="none" stroke-width="0" fill="#fd8888" fill-rule="evenodd"></path><path d="M56.45 -1.71 C71.46 5.22, 83.5 7.44, 111.98 20.24 M56.86 -0.17 C78.37 6.09, 100.58 14.7, 111.79 19.82 M112.01 20.88 C94.26 23.26, 75.62 29.8, 58.71 35.11 M113.2 19.54 C99.17 22.9, 84.54 28.43, 56.13 37.06 M56.14 36.96 C39.24 30.13, 24.24 27.13, 0.93 20.21 M56.8 36.16 C37.68 31.74, 18.29 25.23, 0.51 19.16 M-1.53 19.62 C19.96 13.15, 40.03 5.35, 57.58 1.6 M0.51 18.7 C18.99 12.95, 38.06 5.63, 56.18 -0.07" stroke="#c92a2a" stroke-width="1" fill="none"></path></g><g stroke-linecap="round" transform="translate(934.1048888020541 22.53167229729729) rotate(0 56.32368262651727 18.386723501592797)"><path d="M55.31 2 L112.93 17.84 L57.57 35.84 L-1.56 19.46" stroke="none" stroke-width="0" fill="#fd8888" fill-rule="evenodd"></path><path d="M55.29 1.33 C77.79 7.33, 95.54 13.12, 113.89 20.87 M56.83 -0.38 C68.89 4.29, 82.56 7.77, 113.47 19.26 M114.53 18.69 C92.19 24.11, 73.89 32.7, 55.33 35.84 M113.19 19.46 C90.84 26.08, 70.39 32.15, 57.28 36.63 M57.19 35.4 C35.59 30.06, 17.19 24.69, 1.21 19.77 M56.38 36.76 C39.96 31.07, 21.93 26.23, 0.16 19.34 M0.62 19.77 C13.75 16.82, 25.53 11.2, 58.6 0.59 M-0.3 19.12 C14.52 14.42, 27.53 8.51, 56.93 0.62" stroke="#c92a2a" stroke-width="1" fill="none"></path></g><g stroke-linecap="round" transform="translate(934.1048888020541 10) rotate(0 56.32368262651727 18.386723501592797)"><path d="M59 0.28 L111.49 19.57 L56.06 35.22 L0.46 18.17" stroke="none" stroke-width="0" fill="#fd8888" fill-rule="evenodd"></path><path d="M58.33 0.81 C74.35 4.89, 90.36 13.35, 114.52 17.5 M56.62 -0.83 C79.13 7.99, 100.57 16.1, 112.91 19.42 M112.34 17.63 C96.79 23.69, 84.3 27.44, 56.06 38.49 M113.11 18.78 C99.68 24.25, 85.9 27.88, 56.86 37.37 M55.63 35.69 C44.71 33.99, 33.42 30.37, 0.77 19.15 M56.98 37.38 C36.08 30.03, 15.86 23.58, 0.34 18.32 M0.77 19.54 C19.48 12.07, 35.82 8.72, 57.59 -1.06 M0.12 19.56 C20.9 11.8, 40.26 5.37, 57.62 -0.85" stroke="#c92a2a" stroke-width="1" fill="none"></path></g><g transform="translate(1053.4285714285713 36.40372941172677) rotate(0 63.5 10)"><text x="0" y="14" font-family="Virgil, Segoe UI Emoji" font-size="16px" fill="#862e9c" text-anchor="start" style="white-space: pre;" direction="ltr">tf model on disk</text></g><g stroke-linecap="round"><g transform="translate(108.42857142857133 538.0465865545838) rotate(0 172.2593996966191 74.66561264424593)"><path d="M-0.78 -0.63 C56.31 24.04, 285.82 123.84, 343.17 148.97 M1.01 1.65 C58.41 26.36, 287.85 124.98, 345.3 149.97" stroke="#c92a2a" stroke-width="1" fill="none"></path></g><g transform="translate(108.42857142857133 538.0465865545838) rotate(0 172.2593996966191 74.66561264424593)"><path d="M314.3 146.35 C324.11 147.43, 336.55 148.29, 343.78 149.61 M314.65 147.3 C322.84 149.25, 329.8 149.34, 344.79 150.63" stroke="#c92a2a" stroke-width="1" fill="none"></path></g><g transform="translate(108.42857142857133 538.0465865545838) rotate(0 172.2593996966191 74.66561264424593)"><path d="M322.43 127.51 C329.55 135.12, 339.15 142.55, 343.78 149.61 M322.79 128.46 C328.93 135.05, 333.91 139.73, 344.79 150.63" stroke="#c92a2a" stroke-width="1" fill="none"></path></g></g><g stroke-linecap="round"><g transform="translate(29.3415048295922 453.7630609325728) rotate(0 145.1888541851246 -147.96909126244543)"><path d="M0.05 20.88 C-3.48 -97.87, -5.95 -216.11, -6.84 -306.94 M0.46 20.86 C-1.21 -103.7, -3.43 -229.53, -5.33 -306.8 M-6.2 -307.64 C53.79 -308.17, 116.98 -308.83, 297.21 -316.72 M-5.28 -307.08 C77.19 -309.94, 161.03 -311.7, 296.95 -316.82" stroke="#087f5b" stroke-width="1" fill="none"></path></g><g transform="translate(29.3415048295922 453.7630609325728) rotate(0 145.1888541851246 -147.96909126244543)"><path d="M269.3 -306.34 C278.38 -311.33, 287.77 -315.41, 295.32 -317.5 M269.91 -306.37 C280.06 -309.1, 290.65 -313.64, 297.51 -317.31" stroke="#087f5b" stroke-width="1" fill="none"></path></g><g transform="translate(29.3415048295922 453.7630609325728) rotate(0 145.1888541851246 -147.96909126244543)"><path d="M268.59 -326.85 C278 -324.45, 287.65 -321.14, 295.32 -317.5 M269.19 -326.88 C279.54 -321.75, 290.4 -318.43, 297.51 -317.31" stroke="#087f5b" stroke-width="1" fill="none"></path></g></g><g transform="translate(41.285714285714164 270.47515798315527) rotate(0 73 12.5)"><text x="0" y="18" font-family="Virgil, Segoe UI Emoji" font-size="20px" fill="#087f5b" text-anchor="start" style="white-space: pre;" direction="ltr">channel: sample</text></g></svg>